<svg width="100" height="100" viewBox="0 0 100 100" fill="none" xmlns="http://www.w3.org/2000/svg">
<rect width="100" height="100" fill="white"/>
<path d="M99.6709 47.7389H97.8729V47.029C97.8729 46.5888 97.5148 46.2315 97.0739 46.2315H96.6717C96.2315 46.2315 95.8726 46.5896 95.8726 47.029V47.7389H95.7517V47.029C95.7517 46.5888 95.3937 46.2315 94.9527 46.2315H94.5505C94.1103 46.2315 93.7515 46.5896 93.7515 47.029V47.7389H93.6306V47.029C93.6306 46.5888 93.2725 46.2315 92.8316 46.2315H92.4294C91.9891 46.2315 91.6303 46.5896 91.6303 47.029V47.7389H91.5451V42.0581C91.5451 41.5171 91.1049 41.0769 90.5639 41.0769H88.7365C88.1955 41.0769 87.7554 41.5172 87.7554 42.0581V45.6099H86.3177V37.7901C86.3177 36.5687 85.3242 35.576 84.102 35.576H83.2239C82.6117 35.576 82.056 35.8263 81.6553 36.2293V35.5612C81.6553 34.1492 80.5068 32.9991 79.0932 32.9991H78.0547C77.3099 32.9991 76.6302 33.3215 76.159 33.8415V32.9697C76.159 31.3344 74.8283 30.0022 73.1915 30.0022H71.9647C70.3295 30.0022 68.998 31.3329 68.998 32.9697V44.8435H67.9169C66.7862 44.8435 65.867 45.7634 65.867 46.8942V47.1112H34.1309V46.8942C34.1309 45.7635 33.211 44.8435 32.0803 44.8435H30.9991V32.9675C30.9991 31.3322 29.6685 30 28.0317 30H26.8048C25.1696 30 23.8382 31.3307 23.8382 32.9675V33.8393C23.367 33.3193 22.6873 32.9969 21.9425 32.9969H20.904C19.4919 32.9969 18.3419 34.147 18.3419 35.5591V36.021C17.9644 35.7358 17.4971 35.5746 17.0088 35.5746H16.1308C14.9094 35.5746 13.9166 36.5681 13.9166 37.7887V45.6084H12.479V42.0567C12.479 41.5157 12.0388 41.0755 11.4978 41.0755H9.6704C9.12944 41.0755 8.68925 41.5157 8.68925 42.0567V47.7375H8.604V47.0276C8.604 46.5874 8.24595 46.2301 7.80653 46.2301H7.40431C6.9641 46.2301 6.60684 46.5882 6.60684 47.0276V47.7375H6.48439V47.0276C6.48439 46.5874 6.12634 46.2301 5.68692 46.2301H5.28548C4.84527 46.2301 4.48801 46.5882 4.48801 47.0276V47.7375H4.36556V47.0276C4.36556 46.5874 4.00751 46.2301 3.56809 46.2301H3.1651C2.72489 46.2301 2.36763 46.5882 2.36763 47.0276V47.7375L1.99872 47.7383V47.0284C1.99872 46.5881 1.64067 46.2309 1.20125 46.2309L0.79747 46.2301C0.358053 46.2317 0 46.5889 0 47.0291V54.194C0 54.6342 0.358053 54.993 0.79747 54.993H1.19969C1.6399 54.993 1.99716 54.6341 1.99716 54.194V53.4848L2.36683 53.4856V54.1947C2.36683 54.6349 2.72489 54.9938 3.1643 54.9938H3.56652C4.00673 54.9938 4.36399 54.6349 4.36399 54.1947V53.4856H4.48644V54.1947C4.48644 54.6349 4.8445 54.9938 5.28391 54.9938H5.68613C6.12634 54.9938 6.4836 54.6349 6.4836 54.1947V53.4856H6.60605V54.1947C6.60605 54.6349 6.9641 54.9938 7.40352 54.9938H7.80574C8.24595 54.9938 8.60321 54.6349 8.60321 54.1947V53.4856H8.68846V59.0563C8.68846 59.5973 9.12867 60.0374 9.66961 60.0374H11.497C12.038 60.0374 12.4782 59.5972 12.4782 59.0563V55.6331H13.9158V62.6848C13.9158 63.9062 14.9094 64.899 16.13 64.899H17.0081C17.4971 64.899 17.9621 64.7378 18.3411 64.4526V65.0238C18.3411 66.4358 19.4912 67.5859 20.9032 67.5859H21.9417C22.6865 67.5859 23.3662 67.2635 23.8374 66.7435V67.7626C23.8374 69.3978 25.168 70.7301 26.804 70.7301H28.0309C29.6661 70.7301 30.9983 69.3994 30.9983 67.7626L30.9991 56.3996H32.0802C33.211 56.3996 34.1309 55.4797 34.1309 54.3497V54.1327H65.873V54.3497C65.873 55.4797 66.7929 56.3996 67.9228 56.3996H69.004V67.762C69.004 69.3972 70.3346 70.7295 71.9706 70.7295H73.1975C74.8327 70.7295 76.1649 69.3988 76.1649 67.762V66.7429C76.6361 67.2629 77.3158 67.5853 78.0606 67.5853H79.0991C80.5112 67.5853 81.6612 66.4352 81.6612 65.0232V64.2451C82.0627 64.648 82.6176 64.8984 83.2298 64.8984H84.1079C85.3293 64.8984 86.3236 63.9048 86.3236 62.6842V55.6325H87.7613V59.0557C87.7613 59.5967 88.2015 60.0368 88.7424 60.0368H90.5699C91.1108 60.0368 91.551 59.5966 91.551 59.0557V53.485H91.6363V54.1941C91.6363 54.6343 91.9943 54.9932 92.4353 54.9932H92.8375C93.2777 54.9932 93.6365 54.6343 93.6365 54.1941V53.485H93.7574V54.1941C93.7574 54.6343 94.1155 54.9932 94.5564 54.9932H94.9587C95.3989 54.9932 95.7577 54.6343 95.7577 54.1941V53.485H95.8786V54.1941C95.8786 54.6343 96.2366 54.9932 96.6776 54.9932H97.0798C97.52 54.9932 97.8788 54.6343 97.8788 54.1941V53.485H99.6768C99.8559 53.485 100 53.3409 100 53.1618V48.0624C99.993 47.8833 99.8489 47.7392 99.6698 47.7392L99.6709 47.7389ZM8.28377 52.8384C8.10474 52.8384 7.96059 52.9825 7.96059 53.1615V54.1938C7.96059 54.2783 7.89317 54.3457 7.80869 54.3457H7.40648C7.322 54.3457 7.25458 54.2768 7.25458 54.1938V53.1615C7.25458 52.9825 7.11043 52.8384 6.9314 52.8384H6.16337C5.98435 52.8384 5.8402 52.9825 5.8402 53.1615V54.1938C5.8402 54.2783 5.77278 54.3457 5.6883 54.3457L5.28686 54.3465C5.20238 54.3465 5.13496 54.2775 5.13496 54.1946V53.1623C5.13496 52.9833 4.99081 52.8391 4.81178 52.8391L4.04298 52.8384C3.86396 52.8384 3.71981 52.9825 3.71981 53.1615V54.1938C3.71981 54.2783 3.65238 54.3457 3.56791 54.3457L3.16646 54.3465C3.08199 54.3465 3.01456 54.2775 3.01456 54.1946V53.1623C3.01456 52.9833 2.87042 52.8391 2.69139 52.8391L1.67691 52.8384C1.49789 52.8384 1.35374 52.9825 1.35374 53.1615V54.1938C1.35374 54.2783 1.28631 54.3457 1.20184 54.3457L0.798846 54.3465C0.714371 54.3465 0.646947 54.2775 0.646947 54.1946V47.0298C0.646947 46.9453 0.714371 46.8779 0.798846 46.8779L1.20106 46.8763C1.28554 46.8763 1.35296 46.9438 1.35296 47.0282V48.0613C1.35296 48.2403 1.49711 48.3845 1.67614 48.3845H2.69062C2.86964 48.3845 3.01379 48.2403 3.01379 48.0613V47.0282C3.01379 46.9438 3.08122 46.8763 3.16569 46.8763H3.56791C3.65238 46.8763 3.71981 46.9438 3.71981 47.0282V48.0613C3.71981 48.2403 3.86396 48.3845 4.04298 48.3845H4.81101C4.99003 48.3845 5.13418 48.2403 5.13418 48.0613V47.0282C5.13418 46.9438 5.20161 46.8763 5.28608 46.8763H5.6883C5.77277 46.8763 5.8402 46.9438 5.8402 47.0282V48.0613C5.8402 48.2403 5.98435 48.3845 6.16337 48.3845H6.9314C7.11043 48.3845 7.25458 48.2403 7.25458 48.0613V47.0282C7.25458 46.9438 7.322 46.8763 7.40648 46.8763H7.80869C7.89317 46.8763 7.96059 46.9438 7.96059 47.0282V48.0613C7.96059 48.2403 8.10474 48.3845 8.28377 48.3845H8.69142V52.8384L8.28377 52.8399V52.8384ZM11.8363 59.0562C11.8363 59.2407 11.686 59.3918 11.5015 59.3918H9.67408C9.48963 59.3918 9.3385 59.2415 9.3385 59.0562V42.0589C9.3385 41.8744 9.48885 41.7233 9.67408 41.7233H11.5015C11.686 41.7233 11.8363 41.8737 11.8363 42.0589V59.0562ZM12.4819 54.9858V46.2554H13.9195V54.9858H12.4819ZM17.011 64.2533H16.1329C15.2672 64.2533 14.5643 63.5504 14.5643 62.6847L14.5651 55.3098V37.7893C14.5651 36.9236 15.268 36.2207 16.1337 36.2207H17.0118C17.5597 36.2207 18.0603 36.5121 18.3448 36.9771V63.4953C18.0603 63.9618 17.5589 64.2532 17.011 64.2532V64.2533ZM21.9454 66.9395H20.9069C19.8506 66.9395 18.9903 66.0808 18.9903 65.0229V35.5604C18.9903 34.5041 19.8505 33.6439 20.9069 33.6439H21.9454C22.9017 33.6439 23.714 34.3561 23.841 35.3039V65.2802C23.7139 66.2265 22.9017 66.9379 21.9454 66.9379V66.9395ZM30.355 67.7633C30.355 69.0436 29.3142 70.0844 28.0339 70.0844H26.8071C25.5268 70.0844 24.486 69.0435 24.486 67.7633V65.3113L24.4868 35.2735V32.9671C24.4868 31.6868 25.5276 30.646 26.8078 30.646H28.0347C29.315 30.646 30.3558 31.6868 30.3558 32.9671V56.0747L30.355 67.7633ZM67.9241 55.7539C67.1498 55.7539 66.5198 55.1238 66.5198 54.3496V53.8094C66.5198 53.6304 66.3756 53.4863 66.1966 53.4863H33.8077C33.6287 53.4863 33.4846 53.6304 33.4846 53.8094V54.3496C33.4846 55.1238 32.8545 55.7539 32.0803 55.7539H30.9992V45.4883H32.0803C32.8545 45.4883 33.4846 46.1184 33.4846 46.8926V47.4328C33.4846 47.6118 33.6287 47.7559 33.8077 47.7559H66.1966C66.3756 47.7559 66.5198 47.6118 66.5198 47.4328V46.8926C66.5198 46.1184 67.1498 45.4883 67.9241 45.4883H69.0052V55.7539H67.9241ZM75.519 67.7633C75.519 69.0436 74.4782 70.0844 73.1979 70.0844H71.9711C70.6908 70.0844 69.65 69.0435 69.65 67.7633L69.6508 56.0771V32.9675C69.6508 31.6872 70.6916 30.6464 71.9719 30.6464H73.1987C74.479 30.6464 75.5198 31.6872 75.5198 32.9675V65.3107L75.519 67.7633ZM81.0153 65.0244C81.0153 66.0807 80.1566 66.941 79.0995 66.941H78.061C77.1047 66.941 76.2924 66.2287 76.1653 65.2809L76.1661 35.3046C76.2924 34.3583 77.1047 33.6446 78.0618 33.6446H79.1003C80.1566 33.6446 81.0161 34.5032 81.0161 35.5611V62.6844L81.0153 65.0244ZM85.6761 62.6846C85.6761 63.5503 84.9732 64.2532 84.1075 64.2532H83.2294C82.3638 64.2532 81.6609 63.5503 81.6609 62.6846V37.7894C81.6609 36.9237 82.3638 36.2208 83.2294 36.2208H84.1075C84.9732 36.2208 85.6761 36.9237 85.6761 37.7894V62.6846ZM86.3232 54.9857V46.2553H87.7609V54.9857H86.3232ZM90.9035 59.0561C90.9035 59.2405 90.7532 59.3917 90.5687 59.3917H88.7413C88.5568 59.3917 88.4057 59.2413 88.4057 59.0561L88.4065 55.3097V42.058C88.4065 41.8735 88.5568 41.7224 88.742 41.7224H90.5695C90.7539 41.7224 90.9043 41.8727 90.9043 42.058V53.1614L90.9035 59.0561ZM99.3486 52.8382H97.5506C97.3716 52.8382 97.2274 52.9824 97.2274 53.1614V54.1937C97.2274 54.2782 97.1585 54.3456 97.0755 54.3456H96.6733C96.5888 54.3456 96.5214 54.2766 96.5214 54.1937V53.1614C96.5214 52.9824 96.3773 52.8382 96.1982 52.8382H95.4302C95.2512 52.8382 95.107 52.9824 95.107 53.1614V54.1937C95.107 54.2782 95.0381 54.3456 94.9551 54.3456H94.5529C94.4684 54.3456 94.401 54.2766 94.401 54.1937V53.1614C94.401 52.9824 94.2569 52.8382 94.0779 52.8382H93.3098C93.1308 52.8382 92.9867 52.9824 92.9867 53.1614V54.1937C92.9867 54.2782 92.9177 54.3456 92.8348 54.3456H92.4325C92.3481 54.3456 92.2806 54.2766 92.2806 54.1937V53.1614C92.2806 52.9824 92.1365 52.8382 91.9575 52.8382H91.5498V48.3843H91.9575C92.1365 48.3843 92.2806 48.2402 92.2806 48.0612V47.0281C92.2806 46.9436 92.3496 46.8762 92.4325 46.8762H92.8348C92.9192 46.8762 92.9867 46.9436 92.9867 47.0281V48.0612C92.9867 48.2402 93.1308 48.3843 93.3098 48.3843H94.0779C94.2569 48.3843 94.401 48.2402 94.401 48.0612V47.0281C94.401 46.9436 94.47 46.8762 94.5529 46.8762H94.9551C95.0396 46.8762 95.107 46.9436 95.107 47.0281V48.0612C95.107 48.2402 95.2512 48.3843 95.4302 48.3843H96.1982C96.3773 48.3843 96.5214 48.2402 96.5214 48.0612V47.0281C96.5214 46.9436 96.5904 46.8762 96.6733 46.8762H97.0755C97.16 46.8762 97.2274 46.9436 97.2274 47.0281V48.0612C97.2274 48.2402 97.3716 48.3843 97.5506 48.3843H99.3486V52.8382Z" fill="black"/>
</svg>
