<svg width="100" height="100" viewBox="0 0 100 100" fill="none" xmlns="http://www.w3.org/2000/svg">
<circle cx="50" cy="50" r="49" fill="white" stroke="#1D4ED8" stroke-width="2"/>
<path d="M90.7301 47.5459H89.2558V46.9638C89.2558 46.6028 88.9622 46.3099 88.6006 46.3099H88.2708C87.9098 46.3099 87.6156 46.6034 87.6156 46.9638V47.5459H87.5164V46.9638C87.5164 46.6028 87.2228 46.3099 86.8612 46.3099H86.5314C86.1704 46.3099 85.8762 46.6034 85.8762 46.9638V47.5459H85.7771V46.9638C85.7771 46.6028 85.4835 46.3099 85.1219 46.3099H84.7921C84.4311 46.3099 84.1369 46.6034 84.1369 46.9638V47.5459H84.067V42.8876C84.067 42.444 83.706 42.0831 83.2624 42.0831H81.7639C81.3203 42.0831 80.9594 42.4441 80.9594 42.8876V45.8001H79.7805V39.3879C79.7805 38.3863 78.9658 37.5723 77.9636 37.5723H77.2436C76.7416 37.5723 76.2859 37.7776 75.9574 38.108V37.5602C75.9574 36.4023 75.0155 35.4593 73.8564 35.4593H73.0048C72.3941 35.4593 71.8368 35.7236 71.4504 36.1501V35.4351C71.4504 34.0942 70.3592 33.0018 69.0171 33.0018H68.0111C66.6701 33.0018 65.5784 34.0929 65.5784 35.4351V45.1717H64.6919C63.7647 45.1717 63.011 45.926 63.011 46.8532V47.0312H36.9874V46.8532C36.9874 45.926 36.233 45.1717 35.3058 45.1717H34.4193V35.4333C34.4193 34.0924 33.3281 33 31.986 33H30.98C29.6391 33 28.5473 34.0911 28.5473 35.4333V36.1483C28.1609 35.7218 27.6036 35.4575 26.9929 35.4575H26.1413C24.9834 35.4575 24.0403 36.4006 24.0403 37.5584V37.9372C23.7308 37.7033 23.3476 37.5711 22.9473 37.5711H22.2272C21.2257 37.5711 20.4116 38.3858 20.4116 39.3867V45.7989H19.2328V42.8865C19.2328 42.4429 18.8718 42.0819 18.4282 42.0819H16.9297C16.4861 42.0819 16.1252 42.4429 16.1252 42.8865V47.5447H16.0553V46.9626C16.0553 46.6016 15.7617 46.3087 15.4014 46.3087H15.0715C14.7106 46.3087 14.4176 46.6023 14.4176 46.9626V47.5447H14.3172V46.9626C14.3172 46.6016 14.0236 46.3087 13.6633 46.3087H13.3341C12.9731 46.3087 12.6802 46.6023 12.6802 46.9626V47.5447H12.5798V46.9626C12.5798 46.6016 12.2862 46.3087 11.9258 46.3087H11.5954C11.2344 46.3087 10.9415 46.6023 10.9415 46.9626V47.5447L10.639 47.5454V46.9633C10.639 46.6023 10.3453 46.3093 9.98503 46.3093L9.65393 46.3087C9.2936 46.31 9 46.6029 9 46.9639V52.839C9 53.2 9.2936 53.4942 9.65393 53.4942H9.98374C10.3447 53.4942 10.6377 53.2 10.6377 52.839V52.2576L10.9408 52.2582V52.8397C10.9408 53.2007 11.2344 53.4949 11.5947 53.4949H11.9245C12.2855 53.4949 12.5785 53.2006 12.5785 52.8397V52.2582H12.6789V52.8397C12.6789 53.2007 12.9725 53.4949 13.3328 53.4949H13.6626C14.0236 53.4949 14.3166 53.2006 14.3166 52.8397V52.2582H14.417V52.8397C14.417 53.2007 14.7106 53.4949 15.0709 53.4949H15.4007C15.7617 53.4949 16.0546 53.2006 16.0546 52.8397V52.2582H16.1245V56.8262C16.1245 57.2697 16.4855 57.6307 16.9291 57.6307H18.4276C18.8712 57.6307 19.2321 57.2697 19.2321 56.8262V54.0191H20.411V59.8016C20.411 60.8031 21.2257 61.6172 22.2266 61.6172H22.9466C23.3476 61.6172 23.7289 61.485 24.0397 61.2511V61.7195C24.0397 62.8774 24.9828 63.8204 26.1406 63.8204H26.9922C27.6029 63.8204 28.1603 63.5561 28.5466 63.1296V63.9653C28.5466 65.3062 29.6378 66.3987 30.9793 66.3987H31.9853C33.3262 66.3987 34.4186 65.3075 34.4186 63.9653L34.4193 54.6477H35.3058C36.233 54.6477 36.9873 53.8933 36.9873 52.9668V52.7888H63.0158V52.9668C63.0158 53.8933 63.7702 54.6477 64.6967 54.6477H65.5833V63.9648C65.5833 65.3057 66.6744 66.3982 68.0159 66.3982H69.0219C70.3628 66.3982 71.4553 65.307 71.4553 63.9648V63.1292C71.8416 63.5556 72.399 63.8199 73.0097 63.8199H73.8613C75.0192 63.8199 75.9622 62.8769 75.9622 61.719V61.0809C76.2914 61.4114 76.7464 61.6167 77.2485 61.6167H77.9685C78.97 61.6167 79.7854 60.802 79.7854 59.8011V54.0186H80.9642V56.8257C80.9642 57.2693 81.3252 57.6302 81.7688 57.6302H83.2673C83.7109 57.6302 84.0718 57.2692 84.0718 56.8257V52.2577H84.1417V52.8392C84.1417 53.2002 84.4353 53.4944 84.7969 53.4944H85.1268C85.4877 53.4944 85.7819 53.2002 85.7819 52.8392V52.2577H85.8811V52.8392C85.8811 53.2002 86.1747 53.4944 86.5363 53.4944H86.8661C87.2271 53.4944 87.5213 53.2002 87.5213 52.8392V52.2577H87.6204V52.8392C87.6204 53.2002 87.914 53.4944 88.2756 53.4944H88.6054C88.9664 53.4944 89.2606 53.2002 89.2606 52.8392V52.2577H90.735C90.8818 52.2577 91 52.1395 91 51.9927V47.8111C90.9943 47.6643 90.8761 47.5461 90.7293 47.5461L90.7301 47.5459ZM15.7927 51.7275C15.6459 51.7275 15.5277 51.8457 15.5277 51.9925V52.839C15.5277 52.9082 15.4724 52.9635 15.4031 52.9635H15.0733C15.004 52.9635 14.9488 52.9069 14.9488 52.839V51.9925C14.9488 51.8457 14.8306 51.7275 14.6838 51.7275H14.054C13.9072 51.7275 13.789 51.8457 13.789 51.9925V52.839C13.789 52.9082 13.7337 52.9635 13.6644 52.9635L13.3352 52.9641C13.266 52.9641 13.2107 52.9076 13.2107 52.8396V51.9931C13.2107 51.8463 13.0925 51.7281 12.9457 51.7281L12.3152 51.7275C12.1684 51.7275 12.0502 51.8457 12.0502 51.9925V52.839C12.0502 52.9082 11.995 52.9635 11.9257 52.9635L11.5965 52.9641C11.5272 52.9641 11.4719 52.9076 11.4719 52.8396V51.9931C11.4719 51.8463 11.3537 51.7281 11.2069 51.7281L10.3751 51.7275C10.2283 51.7275 10.1101 51.8457 10.1101 51.9925V52.839C10.1101 52.9082 10.0548 52.9635 9.98551 52.9635L9.65505 52.9641C9.58578 52.9641 9.5305 52.9076 9.5305 52.8396V46.9644C9.5305 46.8952 9.58578 46.8399 9.65505 46.8399L9.98487 46.8386C10.0541 46.8386 10.1094 46.8939 10.1094 46.9632V47.8103C10.1094 47.9571 10.2276 48.0753 10.3744 48.0753H11.2063C11.3531 48.0753 11.4713 47.9571 11.4713 47.8103V46.9632C11.4713 46.8939 11.5266 46.8386 11.5959 46.8386H11.9257C11.995 46.8386 12.0502 46.8939 12.0502 46.9632V47.8103C12.0502 47.9571 12.1684 48.0753 12.3152 48.0753H12.945C13.0918 48.0753 13.21 47.9571 13.21 47.8103V46.9632C13.21 46.8939 13.2653 46.8386 13.3346 46.8386H13.6644C13.7337 46.8386 13.789 46.8939 13.789 46.9632V47.8103C13.789 47.9571 13.9072 48.0753 14.054 48.0753H14.6838C14.8306 48.0753 14.9488 47.9571 14.9488 47.8103V46.9632C14.9488 46.8939 15.004 46.8386 15.0733 46.8386H15.4031C15.4724 46.8386 15.5277 46.8939 15.5277 46.9632V47.8103C15.5277 47.9571 15.6459 48.0753 15.7927 48.0753H16.127V51.7275L15.7927 51.7287V51.7275ZM18.7058 56.8261C18.7058 56.9774 18.5825 57.1013 18.4312 57.1013H16.9327C16.7815 57.1013 16.6576 56.978 16.6576 56.8261V42.8883C16.6576 42.737 16.7809 42.6131 16.9327 42.6131H18.4312C18.5825 42.6131 18.7058 42.7364 18.7058 42.8883V56.8261ZM19.2352 53.4884V46.3295H20.414V53.4884H19.2352ZM22.949 61.0877H22.229C21.5191 61.0877 20.9427 60.5113 20.9427 59.8015L20.9434 53.754V39.3872C20.9434 38.6773 21.5198 38.101 22.2296 38.101H22.9496C23.3989 38.101 23.8095 38.3399 24.0427 38.7212V60.4661C23.8095 60.8487 23.3983 61.0877 22.949 61.0877ZM26.9952 63.2904H26.1436C25.2775 63.2904 24.572 62.5862 24.572 61.7188V37.5596C24.572 36.6934 25.2774 35.988 26.1436 35.988H26.9952C27.7794 35.988 28.4454 36.572 28.5497 37.3492V61.9298C28.4454 62.7057 27.7794 63.2891 26.9952 63.2891V63.2904ZM33.8911 63.9659C33.8911 65.0157 33.0376 65.8692 31.9878 65.8692H30.9818C29.932 65.8692 29.0785 65.0157 29.0785 63.9659V61.9552L29.0791 37.3242V35.433C29.0791 34.3831 29.9326 33.5297 30.9824 33.5297H31.9884C33.0383 33.5297 33.8917 34.3832 33.8917 35.433V54.3813L33.8911 63.9659ZM64.6977 54.1182C64.0629 54.1182 63.5462 53.6015 63.5462 52.9667V52.5237C63.5462 52.3769 63.428 52.2587 63.2812 52.2587H36.7223C36.5755 52.2587 36.4573 52.3769 36.4573 52.5237V52.9667C36.4573 53.6015 35.9407 54.1182 35.3058 54.1182H34.4193V45.7004H35.3058C35.9407 45.7004 36.4573 46.2171 36.4573 46.8519V47.2949C36.4573 47.4417 36.5755 47.5599 36.7223 47.5599H63.2812C63.428 47.5599 63.5462 47.4417 63.5462 47.2949V46.8519C63.5462 46.2171 64.0629 45.7004 64.6977 45.7004H65.5842V54.1182H64.6977ZM70.9256 63.9659C70.9256 65.0157 70.0721 65.8692 69.0223 65.8692H68.0163C66.9665 65.8692 66.113 65.0157 66.113 63.9659L66.1137 54.3832V35.4333C66.1137 34.3835 66.9671 33.53 68.0169 33.53H69.0229C70.0728 33.53 70.9262 34.3835 70.9262 35.4333V61.9547L70.9256 63.9659ZM75.4325 61.72C75.4325 62.5862 74.7284 63.2916 73.8616 63.2916H73.01C72.2258 63.2916 71.5598 62.7076 71.4556 61.9303L71.4562 37.3498C71.5598 36.5738 72.2258 35.9885 73.0107 35.9885H73.8622C74.7284 35.9885 75.4332 36.6927 75.4332 37.5601V59.8012L75.4325 61.72ZM79.2544 59.8014C79.2544 60.5113 78.678 61.0876 77.9682 61.0876H77.2481C76.5383 61.0876 75.9619 60.5112 75.9619 59.8014V39.3873C75.9619 38.6774 76.5383 38.101 77.2481 38.101H77.9682C78.678 38.101 79.2544 38.6774 79.2544 39.3873V59.8014ZM79.7851 53.4883V46.3294H80.9639V53.4883H79.7851ZM83.5409 56.826C83.5409 56.9772 83.4176 57.1012 83.2663 57.1012H81.7678C81.6166 57.1012 81.4927 56.9779 81.4927 56.826L81.4933 53.754V42.8875C81.4933 42.7363 81.6166 42.6124 81.7685 42.6124H83.267C83.4182 42.6124 83.5415 42.7356 83.5415 42.8875V51.9924L83.5409 56.826ZM90.4659 51.7273H88.9915C88.8447 51.7273 88.7265 51.8455 88.7265 51.9923V52.8388C88.7265 52.9081 88.6699 52.9634 88.6019 52.9634H88.2721C88.2029 52.9634 88.1476 52.9068 88.1476 52.8388V51.9923C88.1476 51.8455 88.0294 51.7273 87.8826 51.7273H87.2528C87.106 51.7273 86.9878 51.8455 86.9878 51.9923V52.8388C86.9878 52.9081 86.9312 52.9634 86.8632 52.9634H86.5334C86.4641 52.9634 86.4088 52.9068 86.4088 52.8388V51.9923C86.4088 51.8455 86.2906 51.7273 86.1438 51.7273H85.5141C85.3673 51.7273 85.2491 51.8455 85.2491 51.9923V52.8388C85.2491 52.9081 85.1925 52.9634 85.1245 52.9634H84.7947C84.7254 52.9634 84.6701 52.9068 84.6701 52.8388V51.9923C84.6701 51.8455 84.5519 51.7273 84.4051 51.7273H84.0708V48.0752H84.4051C84.5519 48.0752 84.6701 47.957 84.6701 47.8102V46.963C84.6701 46.8938 84.7267 46.8385 84.7947 46.8385H85.1245C85.1938 46.8385 85.2491 46.8938 85.2491 46.963V47.8102C85.2491 47.957 85.3673 48.0752 85.5141 48.0752H86.1438C86.2906 48.0752 86.4088 47.957 86.4088 47.8102V46.963C86.4088 46.8938 86.4654 46.8385 86.5334 46.8385H86.8632C86.9325 46.8385 86.9878 46.8938 86.9878 46.963V47.8102C86.9878 47.957 87.106 48.0752 87.2528 48.0752H87.8826C88.0294 48.0752 88.1476 47.957 88.1476 47.8102V46.963C88.1476 46.8938 88.2041 46.8385 88.2721 46.8385H88.6019C88.6712 46.8385 88.7265 46.8938 88.7265 46.963V47.8102C88.7265 47.957 88.8447 48.0752 88.9915 48.0752H90.4659V51.7273Z" fill="black"/>
</svg>
